<svg width="18" height="18" viewBox="0 0 18 18" fill="none" xmlns="http://www.w3.org/2000/svg">
<path d="M9 0C4.02959 0 0 4.02959 0 9C0 13.9704 4.02959 18 9 18C13.9704 18 18 13.9704 18 9C18 4.02959 13.9704 0 9 0ZM9.6 16.77V13.8C9.6 13.4688 9.33118 13.2 9 13.2C8.66882 13.2 8.4 13.4688 8.4 13.8V16.77C4.572 16.4778 1.521 13.4274 1.22879 9.6H4.2C4.53121 9.6 4.8 9.33118 4.8 9C4.8 8.66882 4.53118 8.4 4.2 8.4H1.22879C1.521 4.57259 4.572 1.52279 8.4 1.23059V4.2C8.4 4.53121 8.66879 4.8 9 4.8C9.33121 4.8 9.6 4.53118 9.6 4.2V1.23059C13.428 1.52279 16.479 4.57259 16.7712 8.4H13.8C13.4688 8.4 13.2 8.66879 13.2 9C13.2 9.33121 13.4688 9.6 13.8 9.6H16.7712C16.479 13.4274 13.428 16.4778 9.6 16.77Z" fill="#BDBDBD"/>
</svg>
