<svg width="18" height="18" viewBox="0 0 18 18" fill="none" xmlns="http://www.w3.org/2000/svg">
<path d="M17.5355 9.84C17.5355 9.84 18.0975 9.24 17.9851 7.92C17.9851 6.12 16.1866 6 16.1866 6H13.4888C13.264 6 13.1516 5.76 13.1516 5.52C13.4888 4.68 14.0508 3 13.826 1.8C13.4888 0.12 12.1399 0 11.6903 0C11.5779 0 11.4655 0.12 11.4655 0.24L10.3414 3.6C10.3414 3.6 10.3414 3.72 10.229 3.72L7.30642 7.08C7.19401 7.2 7.08161 7.2 6.9692 7.2H6.74438V15.6H6.9692C7.75605 15.6 10.5662 18 13.0392 18C15.5121 18 16.0742 17.64 16.5238 16.8C16.9734 15.96 16.6362 15.24 16.6362 15.24C16.6362 15.24 17.1982 14.88 17.3107 14.04C17.4231 13.2 17.1982 12.72 17.1982 12.72C17.1982 12.72 17.7603 12.24 17.7603 11.28C17.8727 10.2 17.5355 9.84 17.5355 9.84Z" fill="#BDBDBD"/>
<path d="M0 16.8H5.62036V7.20001H0V16.8ZM2.81018 12.6C3.48462 12.6 3.93425 13.08 3.93425 13.8C3.93425 14.52 3.48462 15 2.81018 15C2.13574 15 1.68611 14.52 1.68611 13.8C1.68611 13.08 2.13574 12.6 2.81018 12.6Z" fill="#BDBDBD"/>
</svg>
